<svg width="371" height="400" viewBox="0 0 371 400" fill="none" xmlns="http://www.w3.org/2000/svg">
<path d="M369.68 159.724C369.462 154.054 364.373 150.419 358.484 150.419L313.192 150.71C278.733 149.547 240.856 154.708 222.972 141.332C222.754 141.041 222.536 140.75 222.245 140.532C208.214 122.939 230.315 46.8949 236.567 29.0108C240.347 16.4338 241.729 -0.287056 225.081 0.00374149C148.237 10.9087 85.9337 141.55 34.9714 197.456C22.7579 211.487 7.20017 229.298 3.4925 233.296C1.60231 235.259 0.657273 237.731 0.729972 240.275C0.948071 245.946 6.03705 249.581 11.9257 249.581L57.2174 249.29C91.677 250.453 129.553 245.292 147.437 258.668C147.656 258.959 147.874 259.25 148.164 259.468C162.195 277.061 140.095 353.105 133.843 370.989C130.062 383.566 128.681 400.287 145.329 399.996C222.173 389.091 284.476 258.45 335.438 202.544C347.652 188.514 363.21 170.702 366.917 166.704C368.807 164.741 369.753 162.269 369.68 159.724Z" fill="#D4F854"/>
</svg>
