<svg width="371" height="402" viewBox="0 0 371 402" fill="none" xmlns="http://www.w3.org/2000/svg">
<path d="M369.68 160.724C369.462 155.054 364.373 151.419 358.484 151.419L313.192 151.71C278.733 150.547 240.856 155.708 222.972 142.332C222.754 142.041 222.536 141.75 222.245 141.532C208.214 123.939 230.315 47.8949 236.567 30.0108C240.347 17.4338 241.729 0.712944 225.081 1.00374C148.237 11.9087 85.9337 142.55 34.9714 198.456C22.7579 212.487 7.20017 230.298 3.4925 234.296C1.60231 236.259 0.657273 238.731 0.729972 241.275C0.948071 246.946 6.03705 250.581 11.9257 250.581L57.2174 250.29C91.677 251.453 129.553 246.292 147.437 259.668C147.656 259.959 147.874 260.25 148.164 260.468C162.195 278.061 140.095 354.105 133.843 371.989C130.062 384.566 128.681 401.287 145.329 400.996C222.173 390.091 284.476 259.45 335.438 203.544C347.652 189.514 363.21 171.702 366.917 167.704C368.807 165.741 369.753 163.269 369.68 160.724Z" fill="url(#paint0_radial_156_2472)" stroke="#511602" stroke-width="0.409608"/>
<defs>
<radialGradient id="paint0_radial_156_2472" cx="0" cy="0" r="1" gradientUnits="userSpaceOnUse" gradientTransform="translate(369.635 401) rotate(-132.688) scale(544.178 964.45)">
<stop stop-color="#F2FDB8"/>
<stop offset="0.5" stop-color="#DAFB4E"/>
<stop offset="0.9" stop-color="#A5EC5C"/>
</radialGradient>
</defs>
</svg>
