<svg width="1201" height="501" viewBox="0 0 1201 501" fill="none" xmlns="http://www.w3.org/2000/svg">
<path d="M925.657 335.166C925.507 331.264 922.006 328.763 917.954 328.763L886.788 328.963C863.077 328.162 837.014 331.714 824.708 322.509C824.557 322.309 824.407 322.109 824.207 321.959C814.553 309.853 829.76 257.527 834.062 245.221C836.664 236.567 837.614 225.061 826.158 225.261C773.282 232.765 730.411 322.66 695.344 361.129C686.939 370.783 676.234 383.039 673.683 385.791C672.382 387.141 671.732 388.842 671.782 390.593C671.932 394.495 675.434 396.996 679.486 396.996L710.651 396.796C734.363 397.597 760.426 394.045 772.732 403.249C772.882 403.449 773.032 403.65 773.232 403.8C782.887 415.906 767.679 468.231 763.377 480.538C760.776 489.192 759.826 500.698 771.281 500.497C824.157 492.994 867.029 403.099 902.096 364.63C910.5 354.976 921.205 342.719 923.757 339.968C925.057 338.617 925.708 336.917 925.657 335.166Z" fill="#D4F854"/>
<path d="M162.981 61.1806H131.165L124.862 95.7977H157.728C173.486 95.7977 180.789 90.8953 182.54 81.0904C184.991 66.7333 177.638 61.1806 162.981 61.1806ZM162.63 215.057L136.417 144.772H116.508L103.901 215.057H40.9702L78.0385 5.25293H171.785C225.662 5.25293 252.925 35.668 244.521 84.292C239.268 114.707 223.56 131.165 199.749 138.869L235.767 214.406V215.107H162.68L162.63 215.057Z" fill="#D4F854"/>
<path d="M351.774 220.309C278.338 220.309 242.67 168.533 255.276 97.8984C265.381 40.5701 311.554 0 372.434 0C433.314 0 481.888 51.0752 469.282 122.411C459.127 179.039 415.405 220.309 351.774 220.309ZM355.626 164.381C385.691 164.381 402.149 144.822 408.102 112.255C413.354 82.5408 401.799 56.2778 369.633 56.2778C337.467 56.2778 321.709 78.989 317.157 105.252C310.503 141.97 323.11 164.331 355.626 164.331V164.381Z" fill="#D4F854"/>
<path d="M569.581 5.25293L543.018 155.627H627.66L617.155 215.057H469.582L506.6 5.25293H569.531H569.581Z" fill="#D4F854"/>
<path d="M734.013 5.25293L707.45 155.627H792.092L781.587 215.057H634.014L671.032 5.25293H733.963H734.013Z" fill="#D4F854"/>
<path d="M895.893 160.53C921.055 160.53 930.86 142.321 934.712 120.66L955.022 5.25293H1017.95L994.892 136.418C985.787 188.544 949.069 220.009 892.091 220.009C835.113 220.009 792.792 182.941 803.597 121.41L824.208 5.30295H887.139L866.879 120.71C863.027 142.371 867.229 160.58 895.893 160.58V160.53Z" fill="#D4F854"/>
<path d="M1111.55 61.1804H1093.34L1085.29 107.003H1103.8C1121.3 107.003 1131.76 102.101 1134.56 86.743C1137.36 71.6855 1129.66 61.2304 1111.5 61.2304L1111.55 61.1804ZM1102.09 162.981H1075.18L1066.08 215.106H1003.15L1040.21 5.30273H1118.55C1178.33 5.30273 1208.1 41.3205 1198.99 92.746C1191.64 135.417 1157.02 163.031 1102.09 163.031V162.981Z" fill="#D4F854"/>
<path d="M116.107 378.637H77.6384L72.3858 408.352H111.205C124.512 408.352 131.465 403.449 133.216 395.045C134.967 383.84 131.815 378.587 116.057 378.587L116.107 378.637ZM122.06 303.45H90.945L85.3422 333.165H116.808C132.215 333.165 139.169 330.013 140.92 320.909C143.021 308.653 137.768 303.4 122.01 303.4L122.06 303.45ZM0 460.778L37.0683 250.974H139.519C190.944 250.974 211.905 269.883 204.551 310.403C200.699 332.765 187.042 346.421 165.382 354.125V354.475C193.346 361.479 200.699 377.887 195.096 409.052C189.494 440.518 160.479 460.828 110.104 460.828H0V460.778Z" fill="#D4F854"/>
<path d="M314.255 466.031C240.819 466.031 205.151 414.255 217.758 343.62C227.913 286.292 274.085 245.722 334.915 245.722C395.746 245.722 444.37 296.797 431.763 368.132C421.608 424.81 377.887 466.031 314.255 466.031ZM318.107 410.103C348.172 410.103 364.63 390.543 370.583 357.977C375.836 328.262 364.28 302 332.114 302C299.948 302 284.19 324.711 279.638 350.974C272.985 387.692 285.591 410.053 318.107 410.053V410.103Z" fill="#D4F854"/>
<path d="M543.569 466.031C470.132 466.031 434.465 414.255 447.071 343.62C457.226 286.292 503.349 245.722 564.229 245.722C625.109 245.722 673.683 296.797 661.127 368.132C650.972 424.81 607.25 466.031 543.619 466.031H543.569ZM547.421 410.103C577.486 410.103 593.944 390.543 599.897 357.977C605.149 328.262 593.593 302 561.428 302C529.262 302 513.504 324.711 508.952 350.974C502.298 387.692 514.905 410.053 547.421 410.053V410.103Z" fill="#D4F854"/>
<path d="M929.659 310.403L940.165 250.974H1113.6L1103.1 310.403H1047.82L1021.25 460.778H958.324L984.887 310.403H929.609H929.659Z" fill="#D4F854"/>
</svg>
