<svg width="1201" height="501" viewBox="0 0 1201 501" fill="none" xmlns="http://www.w3.org/2000/svg">
<path fill-rule="evenodd" clip-rule="evenodd" d="M255.276 98.3984C242.67 169.033 278.338 220.809 351.774 220.809C415.405 220.809 459.127 179.538 469.282 122.911C481.888 51.5752 433.314 0.5 372.434 0.5C311.554 0.5 265.381 41.0701 255.276 98.3984ZM408.102 112.755C402.149 145.322 385.691 164.881 355.626 164.881V164.831C323.11 164.831 310.504 142.47 317.157 105.752C321.709 79.489 337.467 56.7778 369.633 56.7778C401.799 56.7778 413.354 83.0408 408.102 112.755ZM162.981 61.6806H131.165L124.862 96.2977H157.728C173.486 96.2977 180.789 91.3953 182.54 81.5904C184.991 67.2333 177.638 61.6806 162.981 61.6806ZM162.63 215.557L136.417 145.272H116.508L103.901 215.557H40.9703L78.0386 5.75293H171.785C225.662 5.75293 252.925 36.168 244.521 84.792C239.268 115.207 223.561 131.665 199.749 139.369L235.767 214.906V215.607H162.68L162.63 215.557ZM925.658 335.666C925.508 331.764 922.006 329.263 917.954 329.263L886.788 329.463C880.727 329.258 874.511 329.338 868.411 329.416H868.411H868.41H868.409H868.409H868.408H868.408H868.407H868.407H868.406C850.647 329.645 833.867 329.86 824.708 323.009C824.558 322.809 824.408 322.609 824.207 322.459C814.553 310.353 829.76 258.027 834.062 245.721C836.664 237.067 837.614 225.561 826.158 225.761C788.814 231.061 756.46 277.457 728.322 317.809C716.619 334.591 705.644 350.329 695.344 361.629C686.94 371.283 676.234 383.539 673.683 386.291C672.382 387.641 671.732 389.342 671.782 391.093C671.932 394.995 675.434 397.496 679.486 397.496L710.651 397.296C716.713 397.501 722.929 397.421 729.029 397.342H729.029H729.03H729.03H729.031H729.031H729.032H729.033H729.033H729.034C746.793 397.114 763.573 396.899 772.732 403.749C772.882 403.949 773.032 404.15 773.232 404.3C782.887 416.406 767.68 468.731 763.377 481.038C760.776 489.692 759.826 501.198 771.281 500.997C808.626 495.698 840.979 449.302 869.118 408.95C880.821 392.167 891.795 376.43 902.096 365.13C910.5 355.476 921.205 343.219 923.757 340.468C925.057 339.117 925.708 337.417 925.658 335.666ZM569.582 5.75293L543.018 156.127H627.66L617.155 215.557H469.582L506.6 5.75293H569.532H569.582ZM707.45 156.127L734.013 5.75293H733.963H671.032L634.013 215.557H781.586L792.092 156.127H707.45ZM895.893 161.03C921.055 161.03 930.86 142.821 934.712 121.16L955.022 5.75293H1017.95L994.892 136.918C985.787 189.044 949.069 220.509 892.091 220.509C835.113 220.509 792.792 183.441 803.597 121.91L824.208 5.80295H887.139L866.879 121.21C863.027 142.871 867.229 161.08 895.893 161.08V161.03ZM1093.34 61.6804H1111.55L1111.5 61.7304C1129.66 61.7304 1137.36 72.1855 1134.56 87.243C1131.76 102.601 1121.3 107.503 1103.8 107.503H1085.29L1093.34 61.6804ZM1075.18 163.481H1102.09V163.531C1157.02 163.531 1191.64 135.917 1198.99 93.246C1208.1 41.8205 1178.33 5.80273 1118.55 5.80273H1040.21L1003.15 215.606H1066.08L1075.18 163.481ZM116.107 379.137H77.6384L72.3858 408.852H111.205C124.512 408.852 131.465 403.949 133.216 395.545C134.967 384.34 131.815 379.087 116.057 379.087L116.107 379.137ZM122.06 303.95H90.945L85.3422 333.665H116.808C132.215 333.665 139.169 330.513 140.92 321.409C143.021 309.153 137.768 303.9 122.01 303.9L122.06 303.95ZM0 461.278L37.0683 251.474H139.519C190.944 251.474 211.905 270.383 204.551 310.904C200.699 333.265 187.042 346.921 165.382 354.625V354.975C193.346 361.979 200.699 378.387 195.096 409.552C189.494 441.018 160.479 461.328 110.104 461.328H0V461.278ZM217.758 344.12C205.151 414.755 240.819 466.531 314.255 466.531C377.887 466.531 421.608 425.31 431.763 368.632C444.37 297.297 395.746 246.222 334.916 246.222C274.086 246.222 227.913 286.792 217.758 344.12ZM370.583 358.477C364.63 391.043 348.172 410.603 318.107 410.603V410.553C285.591 410.553 272.985 388.192 279.638 351.474C284.191 325.211 299.948 302.5 332.114 302.5C364.28 302.5 375.836 328.762 370.583 358.477ZM543.569 466.531C470.132 466.531 434.465 414.755 447.071 344.12C457.226 286.792 503.349 246.222 564.229 246.222C625.109 246.222 673.683 297.297 661.127 368.632C650.972 425.31 607.25 466.531 543.619 466.531H543.569ZM547.421 410.603C577.486 410.603 593.944 391.043 599.897 358.477C605.149 328.762 593.593 302.5 561.428 302.5C529.262 302.5 513.504 325.211 508.952 351.474C502.298 388.192 514.905 410.553 547.421 410.553V410.603ZM940.165 251.474L929.66 310.904H984.887L958.324 461.278H1021.25L1047.82 310.904H1103.1L1113.6 251.474H940.165Z" fill="url(#paint0_radial_156_2455)"/>
<defs>
<radialGradient id="paint0_radial_156_2455" cx="0" cy="0" r="1" gradientUnits="userSpaceOnUse" gradientTransform="translate(1200.45 501) rotate(-157.37) scale(1300.75 1642.84)">
<stop stop-color="#F2FDB8"/>
<stop offset="0.5" stop-color="#DAFB4E"/>
<stop offset="0.9" stop-color="#A5EC5C"/>
</radialGradient>
</defs>
</svg>
