<svg width="1201" height="501" viewBox="0 0 1201 501" fill="none" xmlns="http://www.w3.org/2000/svg">
<path d="M925.657 335.666C925.507 331.764 922.006 329.263 917.954 329.263L886.788 329.463C863.077 328.662 837.014 332.214 824.708 323.009C824.557 322.809 824.407 322.609 824.207 322.459C814.553 310.353 829.76 258.027 834.062 245.721C836.664 237.067 837.614 225.561 826.158 225.761C773.282 233.265 730.411 323.16 695.344 361.629C686.939 371.283 676.234 383.539 673.683 386.291C672.382 387.641 671.732 389.342 671.782 391.093C671.932 394.995 675.434 397.496 679.486 397.496L710.651 397.296C734.363 398.097 760.426 394.545 772.732 403.749C772.882 403.949 773.032 404.15 773.232 404.3C782.887 416.406 767.679 468.731 763.377 481.038C760.776 489.692 759.826 501.198 771.281 500.997C824.157 493.494 867.029 403.599 902.096 365.13C910.5 355.476 921.205 343.219 923.757 340.468C925.057 339.117 925.708 337.417 925.657 335.666Z" fill="black"/>
<path d="M162.981 61.6806H131.165L124.862 96.2977H157.728C173.486 96.2977 180.789 91.3953 182.54 81.5904C184.991 67.2333 177.638 61.6806 162.981 61.6806ZM162.63 215.557L136.417 145.272H116.508L103.901 215.557H40.9702L78.0385 5.75293H171.785C225.662 5.75293 252.925 36.168 244.521 84.792C239.268 115.207 223.56 131.665 199.749 139.369L235.767 214.906V215.607H162.68L162.63 215.557Z" fill="black"/>
<path d="M351.774 220.809C278.338 220.809 242.67 169.033 255.276 98.3984C265.381 41.0701 311.554 0.5 372.434 0.5C433.314 0.5 481.888 51.5752 469.282 122.911C459.127 179.539 415.405 220.809 351.774 220.809ZM355.626 164.881C385.691 164.881 402.149 145.322 408.102 112.755C413.354 83.0408 401.799 56.7778 369.633 56.7778C337.467 56.7778 321.709 79.489 317.157 105.752C310.503 142.47 323.11 164.831 355.626 164.831V164.881Z" fill="black"/>
<path d="M569.581 5.75293L543.018 156.127H627.66L617.155 215.557H469.582L506.6 5.75293H569.531H569.581Z" fill="black"/>
<path d="M734.013 5.75293L707.45 156.127H792.092L781.587 215.557H634.014L671.032 5.75293H733.963H734.013Z" fill="black"/>
<path d="M895.893 161.03C921.055 161.03 930.86 142.821 934.712 121.16L955.022 5.75293H1017.95L994.892 136.918C985.787 189.044 949.069 220.509 892.091 220.509C835.113 220.509 792.792 183.441 803.597 121.91L824.208 5.80295H887.139L866.879 121.21C863.027 142.871 867.229 161.08 895.893 161.08V161.03Z" fill="black"/>
<path d="M1111.55 61.6804H1093.34L1085.29 107.503H1103.8C1121.3 107.503 1131.76 102.601 1134.56 87.243C1137.36 72.1855 1129.66 61.7304 1111.5 61.7304L1111.55 61.6804ZM1102.09 163.481H1075.18L1066.08 215.606H1003.15L1040.21 5.80273H1118.55C1178.33 5.80273 1208.1 41.8205 1198.99 93.246C1191.64 135.917 1157.02 163.531 1102.09 163.531V163.481Z" fill="black"/>
<path d="M116.107 379.137H77.6384L72.3858 408.852H111.205C124.512 408.852 131.465 403.949 133.216 395.545C134.967 384.34 131.815 379.087 116.057 379.087L116.107 379.137ZM122.06 303.95H90.945L85.3422 333.665H116.808C132.215 333.665 139.169 330.513 140.92 321.409C143.021 309.153 137.768 303.9 122.01 303.9L122.06 303.95ZM0 461.278L37.0683 251.474H139.519C190.944 251.474 211.905 270.383 204.551 310.903C200.699 333.265 187.042 346.921 165.382 354.625V354.975C193.346 361.979 200.699 378.387 195.096 409.552C189.494 441.018 160.479 461.328 110.104 461.328H0V461.278Z" fill="black"/>
<path d="M314.255 466.531C240.819 466.531 205.151 414.755 217.758 344.12C227.913 286.792 274.085 246.222 334.915 246.222C395.746 246.222 444.37 297.297 431.763 368.632C421.608 425.31 377.887 466.531 314.255 466.531ZM318.107 410.603C348.172 410.603 364.63 391.043 370.583 358.477C375.836 328.762 364.28 302.5 332.114 302.5C299.948 302.5 284.19 325.211 279.638 351.474C272.985 388.192 285.591 410.553 318.107 410.553V410.603Z" fill="black"/>
<path d="M543.569 466.531C470.132 466.531 434.465 414.755 447.071 344.12C457.226 286.792 503.349 246.222 564.229 246.222C625.109 246.222 673.683 297.297 661.127 368.632C650.972 425.31 607.25 466.531 543.619 466.531H543.569ZM547.421 410.603C577.486 410.603 593.944 391.043 599.897 358.477C605.149 328.762 593.593 302.5 561.428 302.5C529.262 302.5 513.504 325.211 508.952 351.474C502.298 388.192 514.905 410.553 547.421 410.553V410.603Z" fill="black"/>
<path d="M929.659 310.903L940.165 251.474H1113.6L1103.1 310.903H1047.82L1021.25 461.278H958.324L984.887 310.903H929.609H929.659Z" fill="black"/>
</svg>
