<svg fill="none" height="501" viewBox="0 0 1201 501" width="1201" xmlns="http://www.w3.org/2000/svg"><g fill="#000"><path d="m925.657 335.666c-.15-3.902-3.651-6.403-7.703-6.403l-31.166.2c-23.711-.801-49.774 2.751-62.08-6.454-.151-.2-.301-.4-.501-.55-9.654-12.106 5.553-64.432 9.855-76.738 2.602-8.654 3.552-20.16-7.904-19.96-52.876 7.504-95.747 97.399-130.814 135.868-8.405 9.654-19.11 21.91-21.661 24.662-1.301 1.35-1.951 3.051-1.901 4.802.15 3.902 3.652 6.403 7.704 6.403l31.165-.2c23.712.801 49.775-2.751 62.081 6.453.15.2.3.401.5.551 9.655 12.106-5.553 64.431-9.855 76.738-2.601 8.654-3.551 20.16 7.904 19.959 52.876-7.503 95.748-97.398 130.815-135.867 8.404-9.654 19.109-21.911 21.661-24.662 1.3-1.351 1.951-3.051 1.9-4.802z"/><path d="m162.981 61.6806h-31.816l-6.303 34.6171h32.866c15.758 0 23.061-4.9024 24.812-14.7073 2.451-14.3571-4.902-19.9098-19.559-19.9098zm-.351 153.8764-26.213-70.285h-19.909l-12.607 70.285h-62.9308l37.0683-209.80407h93.7465c53.877 0 81.14 30.41507 72.736 79.03907-5.253 30.415-20.961 46.873-44.772 54.577l36.018 75.537v.701h-73.087z"/><path d="m351.774 220.809c-73.436 0-109.104-51.776-96.498-122.4106 10.105-57.3283 56.278-97.8984 117.158-97.8984s109.454 51.0752 96.848 122.411c-10.155 56.628-53.877 97.898-117.508 97.898zm3.852-55.928c30.065 0 46.523-19.559 52.476-52.126 5.252-29.7142-6.303-55.9772-38.469-55.9772s-47.924 22.7112-52.476 48.9742c-6.654 36.718 5.953 59.079 38.469 59.079z"/><path d="m569.581 5.75293-26.563 150.37407h84.642l-10.505 59.43h-147.573l37.018-209.80407h62.931z"/><path d="m734.013 5.75293-26.563 150.37407h84.642l-10.505 59.43h-147.573l37.018-209.80407h62.931z"/><path d="m895.893 161.03c25.162 0 34.967-18.209 38.819-39.87l20.31-115.40707h62.928l-23.058 131.16507c-9.105 52.126-45.823 83.591-102.801 83.591s-99.299-37.068-88.494-98.599l20.611-116.10705h62.931l-20.26 115.40705c-3.852 21.661.35 39.87 29.014 39.87z"/><path d="m1111.55 61.6804h-18.21l-8.05 45.8226h18.51c17.5 0 27.96-4.902 30.76-20.26 2.8-15.0575-4.9-25.5126-23.06-25.5126zm-9.46 101.8006h-26.91l-9.1 52.125h-62.93l37.06-209.80327h78.34c59.78 0 89.55 36.01777 80.44 87.44327-7.35 42.671-41.97 70.285-96.9 70.285z"/><path d="m116.107 379.137h-38.4686l-5.2526 29.715h38.8192c13.307 0 20.26-4.903 22.011-13.307 1.751-11.205-1.401-16.458-17.159-16.458zm5.953-75.187h-31.115l-5.6028 29.715h31.4658c15.407 0 22.361-3.152 24.112-12.256 2.101-12.256-3.152-17.509-18.91-17.509zm-122.06 157.328 37.0683-209.804h102.4507c51.425 0 72.386 18.909 65.032 59.429-3.852 22.362-17.509 36.018-39.169 43.722v.35c27.964 7.004 35.317 23.412 29.714 54.577-5.602 31.466-34.617 51.776-84.992 51.776h-110.104z"/><path d="m314.255 466.531c-73.436 0-109.104-51.776-96.497-122.411 10.155-57.328 56.327-97.898 117.157-97.898 60.831 0 109.455 51.075 96.848 122.41-10.155 56.678-53.876 97.899-117.508 97.899zm3.852-55.928c30.065 0 46.523-19.56 52.476-52.126 5.253-29.715-6.303-55.977-38.469-55.977s-47.924 22.711-52.476 48.974c-6.653 36.718 5.953 59.079 38.469 59.079z"/><path d="m543.569 466.531c-73.437 0-109.104-51.776-96.498-122.411 10.155-57.328 56.278-97.898 117.158-97.898s109.454 51.075 96.898 122.41c-10.155 56.678-53.877 97.899-117.508 97.899zm3.852-55.928c30.065 0 46.523-19.56 52.476-52.126 5.252-29.715-6.304-55.977-38.469-55.977-32.166 0-47.924 22.711-52.476 48.974-6.654 36.718 5.953 59.079 38.469 59.079z"/><path d="m929.659 310.903 10.506-59.429h173.435l-10.5 59.429h-55.28l-26.57 150.375h-62.926l26.563-150.375h-55.278z"/></g></svg>