<svg fill="none" height="501" viewBox="0 0 1201 501" width="1201" xmlns="http://www.w3.org/2000/svg" xmlns:xlink="http://www.w3.org/1999/xlink"><radialGradient id="a" cx="0" cy="0" gradientTransform="matrix(-1200.60379287 -500.5008442 632.12977659 -1516.35589858 1200.45 501)" gradientUnits="userSpaceOnUse" r="1"><stop offset="0" stop-color="#f2fdb8"/><stop offset=".5" stop-color="#dafb4e"/><stop offset=".9" stop-color="#a5ec5c"/></radialGradient><path clip-rule="evenodd" d="m255.276 98.3984c-12.606 70.6346 23.062 122.4106 96.498 122.4106 63.631 0 107.353-41.271 117.508-97.898 12.606-71.3358-35.968-122.411-96.848-122.411s-107.053 40.5701-117.158 97.8984zm152.826 14.3566c-5.953 32.567-22.411 52.126-52.476 52.126v-.05c-32.516 0-45.122-22.361-38.469-59.079 4.552-26.263 20.31-48.9742 52.476-48.9742s43.721 26.263 38.469 55.9772zm-245.121-51.0744h-31.816l-6.303 34.6171h32.866c15.758 0 23.061-4.9024 24.812-14.7073 2.451-14.3571-4.902-19.9098-19.559-19.9098zm-.351 153.8764-26.213-70.285h-19.909l-12.607 70.285h-62.9307l37.0683-209.80407h93.7464c53.877 0 81.14 30.41507 72.736 79.03907-5.253 30.415-20.96 46.873-44.772 54.577l36.018 75.537v.701h-73.087zm763.028 120.109c-.15-3.902-3.652-6.403-7.704-6.403l-31.166.2c-6.061-.205-12.277-.125-18.377-.047h-.001-.001-.001-.001-.001c-17.759.229-34.539.444-43.698-6.407-.15-.2-.3-.4-.501-.55-9.654-12.106 5.553-64.432 9.855-76.738 2.602-8.654 3.552-20.16-7.904-19.96-37.344 5.3-69.698 51.696-97.836 92.048-11.703 16.782-22.678 32.52-32.978 43.82-8.404 9.654-19.11 21.91-21.661 24.662-1.301 1.35-1.951 3.051-1.901 4.802.15 3.902 3.652 6.403 7.704 6.403l31.165-.2c6.062.205 12.278.125 18.378.046h.001.001.001.001.001c17.759-.228 34.539-.443 43.698 6.407.15.2.3.401.5.551 9.655 12.106-5.552 64.431-9.855 76.738-2.601 8.654-3.551 20.16 7.904 19.959 37.345-5.299 69.698-51.695 97.837-92.047 11.703-16.783 22.677-32.52 32.978-43.82 8.404-9.654 19.109-21.911 21.661-24.662 1.3-1.351 1.951-3.051 1.901-4.802zm-356.076-329.91307-26.564 150.37407h84.642l-10.505 59.43h-147.573l37.018-209.80407h62.932zm137.868 150.37407 26.563-150.37407h-.05-62.931l-37.019 209.80407h147.573l10.506-59.43zm188.443 4.903c25.162 0 34.967-18.209 38.819-39.87l20.31-115.40707h62.928l-23.058 131.16507c-9.105 52.126-45.823 83.591-102.801 83.591s-99.299-37.068-88.494-98.599l20.611-116.10705h62.931l-20.26 115.40705c-3.852 21.661.35 39.87 29.014 39.87zm197.447-99.3496h18.21l-.05.05c18.16 0 25.86 10.4551 23.06 25.5126-2.8 15.358-13.26 20.26-30.76 20.26h-18.51zm-18.16 101.8006h26.91v.05c54.93 0 89.55-27.614 96.9-70.285 9.11-51.4255-20.66-87.44327-80.44-87.44327h-78.34l-37.06 209.80327h62.93zm-959.073 215.656h-38.4686l-5.2526 29.715h38.8192c13.307 0 20.26-4.903 22.011-13.307 1.751-11.205-1.401-16.458-17.159-16.458zm5.953-75.187h-31.115l-5.6028 29.715h31.4658c15.407 0 22.361-3.152 24.112-12.256 2.101-12.256-3.152-17.509-18.91-17.509zm-122.06 157.328 37.0683-209.804h102.4507c51.425 0 72.386 18.909 65.032 59.43-3.852 22.361-17.509 36.017-39.169 43.721v.35c27.964 7.004 35.317 23.412 29.714 54.577-5.602 31.466-34.617 51.776-84.992 51.776h-110.104zm217.758-117.158c-12.607 70.635 23.061 122.411 96.497 122.411 63.632 0 107.353-41.221 117.508-97.899 12.607-71.335-36.017-122.41-96.847-122.41s-107.003 40.57-117.158 97.898zm152.825 14.357c-5.953 32.566-22.411 52.126-52.476 52.126v-.05c-32.516 0-45.122-22.361-38.469-59.079 4.553-26.263 20.31-48.974 52.476-48.974s43.722 26.262 38.469 55.977zm172.986 108.054c-73.437 0-109.104-51.776-96.498-122.411 10.155-57.328 56.278-97.898 117.158-97.898s109.454 51.075 96.898 122.41c-10.155 56.678-53.877 97.899-117.508 97.899zm3.852-55.928c30.065 0 46.523-19.56 52.476-52.126 5.252-29.715-6.304-55.977-38.469-55.977-32.166 0-47.924 22.711-52.476 48.974-6.654 36.718 5.953 59.079 38.469 59.079zm392.744-159.129-10.505 59.43h55.227l-26.563 150.374h62.926l26.57-150.374h55.28l10.5-59.43z" fill="url(#a)" fill-rule="evenodd"/></svg>